# xmcd CD database file
#
# Track frame offsets:
#	150
#	18475
#	35170
#	57275
#	74640
#	88800
#	105610
#	137775
#	157880
#	168600
#	190410
#	211230
#	229415
#
# Disc length: 3254 seconds
#
# Revision: 0
# Processed by: cddbd v1.5.2PL0 Copyright (c) Steve Scherf et al.
# Submitted via: CDex 1.70beta2
#
DISCID=c00cb40d
DTITLE=Vitali Imereli - Tribute to Stephane Grappelli
DYEAR=1900
DGENRE=Jazz
TTITLE0=Honeysuckle Rose
TTITLE1=S-H-I-N-E
TTITLE2=Do You Know What It Means To Miss New Orleans
TTITLE3=Daphne
TTITLE4=I'm Coming, Virginia
TTITLE5=It Don't Mean A Thing, If It Ain't Got That Swing
TTITLE6=Nuages
TTITLE7=It's Only A Paper Moon
TTITLE8=I Can't Give You Anything But Love
TTITLE9=Opportunity
TTITLE10=What Are You Doing For The Rest Of Your Life
TTITLE11=I've Got The World On A String
TTITLE12=Tiger Rag
EXTD=
EXTT0=
EXTT1=
EXTT2=
EXTT3=
EXTT4=
EXTT5=
EXTT6=
EXTT7=
EXTT8=
EXTT9=
EXTT10=
EXTT11=
EXTT12=
PLAYORDER=
